<svg width="20" height="20" viewBox="0 0 20 20" fill="none" xmlns="http://www.w3.org/2000/svg">
<path d="M18.8267 9.57479L10.426 1.17549C10.192 0.941505 9.80799 0.941505 9.57397 1.17549L1.17335 9.57479C1.00533 9.74877 0.95133 10.0067 1.04734 10.2287C1.13734 10.4567 1.35936 10.6007 1.59938 10.6007H3.39951V18.4001C3.39951 18.73 3.66953 19 3.99956 19H7.49781V17.8001V13.6005C7.49781 13.2705 7.76783 13.0005 8.09786 13.0005H11.6981C12.0341 13.0005 12.2982 13.2705 12.2982 13.6005V17.8001V19H16.0004C16.3305 19 16.6005 18.73 16.6005 18.4001V10.6007H18.4006C18.6406 10.6007 18.8627 10.4567 18.9527 10.2287C19.0487 10.0067 18.9947 9.74877 18.8267 9.57479Z" stroke="#4F4F4F" stroke-width="2"/>
</svg>
